<?xml version="1.0" encoding="UTF-8"?>
<svg width="56px" height="51px" viewBox="0 0 56 51" version="1.1" xmlns="http://www.w3.org/2000/svg" xmlns:xlink="http://www.w3.org/1999/xlink">
    <title>itch</title>
    <g id="Page-1" stroke="none" stroke-width="1" fill="none" fill-rule="evenodd">
        <path d="M0.809310892,9.48449121 L0.809310892,11.8665419 C0.809310892,14.8860109 3.61096828,17.5398818 6.15472028,17.5398818 C9.20911145,17.5398818 11.7539877,14.9897556 11.7542126,11.9630381 C11.7542126,14.9897556 14.2118462,17.5398818 17.2664622,17.5398818 C20.3213031,17.5398818 22.7000137,14.9897556 22.7000137,11.9630381 C22.7000137,14.9897556 25.313245,17.5398818 28.367861,17.5398818 L28.4231746,17.5398818 C31.4780155,17.5398818 34.0912468,14.9897556 34.0912468,11.9630381 C34.0912468,14.9897556 36.4701822,17.5398818 39.5245733,17.5398818 C42.5791894,17.5398818 45.036823,14.9897556 45.036823,11.9630381 C45.036823,14.9897556 47.582149,17.5398818 50.6363153,17.5398818 C53.1800673,17.5398818 55.9817247,14.886464 55.9817247,11.8665419 L55.9817247,9.48449121 C55.9367543,8.04520343 51.1952977,2.55760733 48.7891551,1.11854608 C41.3092246,0.853974449 36.1236851,0.808218055 28.3952929,0.809310892 C20.6671257,0.810030189 10.1310051,0.931669713 8.00188043,1.11854608 C5.59573792,2.55806037 0.854281316,8.04542995 0.809310892,9.48449121 Z M21.586546,17.5120202 C20.4335043,18.6477755 18.8530188,19.3517897 17.1106397,19.3517897 C15.4339894,19.3533732 13.8235864,18.6925041 12.6252897,17.5111142 C12.2075144,17.0988536 11.8900232,16.6580519 11.5992895,16.1447648 C11.3074314,16.659864 10.9026976,17.1004392 10.484023,17.5131528 C9.28526782,18.6936742 7.67504812,19.3539802 5.99867291,19.3524693 C5.78866104,19.3524693 5.57010478,19.2940279 5.39337101,19.2328684 C5.1478325,21.8088175 5.04417567,24.2706021 5.00752478,26.0655213 L5.00707508,26.0757145 C5.00257803,26.9872181 4.99808099,27.7367623 4.99358395,28.77806 C5.04080289,34.1827509 4.46225839,46.2955105 7.35902823,49.2717148 C11.8479759,50.3261505 20.1081433,50.8063662 28.3950681,50.8093109 C36.6831171,50.8063662 44.9432845,50.3261505 49.4322322,49.2717148 C52.329002,46.295284 51.7504575,34.1825244 51.7976765,28.7778335 C51.7927297,27.7367623 51.7886824,26.9872181 51.7841854,26.075488 L51.7835108,26.0652948 C51.7470848,24.2699226 51.6434279,21.8083645 51.3978894,19.2324154 C51.2211557,19.2935749 51.0028242,19.3520162 50.7925875,19.3520162 C49.1162123,19.3535272 47.5059926,18.6932212 46.3072375,17.5126998 C45.8885628,17.0999862 45.483829,16.6596375 45.1930952,16.1452178 C44.9007875,16.6575988 44.5835211,17.0986271 44.1657459,17.5106611 C42.9674955,18.6919545 41.3571708,19.3527433 39.6806207,19.3511102 C37.9384665,19.3511102 36.3577561,18.6466429 35.2047145,17.5111142 C34.7837441,17.0990714 34.4219829,16.6297984 34.1299213,16.1169032 C33.8409902,16.629233 33.4825745,17.0984858 33.0650217,17.5111142 C31.866434,18.6922831 30.2559267,19.3529661 28.579222,19.3513367 C28.5185119,19.3513367 28.4578018,19.3486185 28.3970918,19.3468063 C28.3348077,19.3486185 28.2740976,19.3513367 28.212713,19.3513367 C26.53604,19.3530266 24.9255371,18.6924267 23.7269133,17.5113407 C23.3093649,17.0987084 22.9509497,16.6294562 22.6620136,16.1169032 C22.3692775,16.6307044 22.0075164,17.0999774 21.586546,17.5120202 Z M18.0545689,22.1205046 L18.0579417,22.1205046 C19.8821669,22.1243554 21.5026761,22.1205046 23.5106055,24.3281374 C25.0908662,24.1611945 26.7421802,24.0778363 28.3948432,24.080328 C30.0488554,24.0780628 31.7001694,24.1611945 33.2806549,24.3281374 C35.2885843,22.1202781 36.9090935,22.1241289 38.7333187,22.1205046 L38.7364667,22.1205046 C39.5978751,22.1182394 43.0455327,22.1182394 45.4478527,28.9153292 L48.0282556,38.2398934 C49.940398,45.176744 47.4159833,45.3464051 44.2671542,45.3525211 C39.5974254,45.1774236 37.0118509,41.7610971 37.0118509,38.3452237 C34.426951,38.7719814 31.4114592,38.9853602 28.3959675,38.9855867 L28.3946184,38.9855867 C25.3789018,38.9855867 22.36341,38.7719814 19.7787349,38.3452237 C19.7787349,41.7610971 17.1929356,45.1774236 12.5234317,45.3525211 C9.37460261,45.3464051 6.85041274,45.1769706 8.76255514,38.2398934 L11.3436326,28.9155557 C13.7459526,22.1182394 17.1936101,22.1182394 18.0554683,22.1182394 L18.0545689,22.1205046 Z M22.5959071,33.6259726 L25.8121918,33.4961785 L25.8121918,36.3217491 C25.8121918,36.4540349 27.102843,36.4001239 28.3948432,36.3398705 C29.6877429,36.4001239 30.9786189,36.4540349 30.9786189,36.3217491 L30.9786189,33.4961785 L34.1949036,33.6259726 C33.3116845,32.0097752 28.3959675,27.4613178 28.3959675,27.4613178 C28.3903462,27.4658482 23.4789014,32.0097752 22.5959071,33.6259726 Z" id="itch" fill="#FFFFFF" fill-rule="nonzero"></path>
    </g>
</svg>