<?xml version="1.0" encoding="UTF-8"?>
<svg width="65px" height="64px" viewBox="0 0 65 64" version="1.1" xmlns="http://www.w3.org/2000/svg" xmlns:xlink="http://www.w3.org/1999/xlink">
    <title>Group</title>
    <g id="Page-1" stroke="none" stroke-width="1" fill="none" fill-rule="evenodd">
        <g id="B" transform="translate(0.028, 0)" fill="#FFFFFF">
            <path d="M31.9654628,0 C49.657537,0 64,14.327 64,32 C64,49.673 49.657537,64 31.9654628,64 C17.4788444,64 5.23664576,54.386 1.27837825,41.202 L1.318,41.333 L13.4444948,46.333 C14.0451424,49.061 15.9271715,51.453 18.6921525,52.603 C23.2216344,54.483008 28.4195609,52.3430712 30.3076755,47.821 C30.7914337,46.6641952 31.0247863,45.4182634 30.9924137,44.165 L42.1974942,36.16 L42.472791,36.165 C49.1850276,36.165 54.6409097,30.699 54.6409097,23.985 C54.6409097,17.271 49.1950384,11.825 42.472791,11.811 C35.7635576,11.811 30.3046722,17.271 30.3046722,23.985 L30.314683,23.985 L30.3176863,24.143 L22.4792354,35.518 C21.2098669,35.46 19.936494,35.683 18.7271903,36.18 C18.200762,36.3937072 17.6981551,36.6618327 17.2275735,36.98 L0.01401511,29.893 L0.013,29.896 L0,29.874 C1.08621107,13.35981 14.7126001,0.2642088 31.4571087,0.003948195 Z M24.7346671,38.069 C26.4365019,38.772 27.7379049,40.096 28.4346561,41.789 C29.1314073,43.482 29.127403,45.349 28.4246453,47.035 C26.9770847,50.535 22.9607546,52.182 19.4699911,50.729 C17.9209379,50.0786751 16.66534,48.882089 15.9421877,47.367 L19.9034584,49.007 C21.1393323,49.5208844 22.5289877,49.5230898 23.7664899,49.0131306 C25.0039922,48.5031714 25.9878882,47.5228552 26.501572,46.288 C27.5740263,43.7154534 26.3576893,40.7613525 23.7836417,39.687 L19.6792167,37.992 C21.2589198,37.392 23.054856,37.372 24.7346671,38.069 Z M42.4838028,15.876 C46.9618599,15.8870151 50.5875953,19.5137601 50.5925451,23.987 C50.5886976,28.4610208 46.9626404,32.0889819 42.4838028,32.1 C38.0057474,32.087882 34.3809067,28.4602423 34.3770628,23.987 C34.3820089,19.5145385 38.006528,15.8881148 42.4838028,15.876 Z M42.4958158,17.879 C39.1307267,17.8845185 36.4064864,20.6125355 36.4092537,23.974 C36.4065915,27.3350737 39.1311178,30.0620333 42.4958158,30.067 C45.8616871,30.0636879 48.5880419,27.3362436 48.586383,23.974 C48.586383,20.609 45.8544368,17.879 42.4958158,17.879 Z" id="Combined-Shape"></path>
        </g>
    </g>
</svg>